<?xml version="1.0" encoding="UTF-8"?>
<svg version="1.1" xmlns="http://www.w3.org/2000/svg" width="512" height="512">
<path d="M0 0 C168.96 0 337.92 0 512 0 C512 168.96 512 337.92 512 512 C343.04 512 174.08 512 0 512 C0 343.04 0 174.08 0 0 Z " fill="#000000" transform="translate(0,0)"/>
<path d="M0 0 C1.25606552 0.00140488 1.25606552 0.00140488 2.5375061 0.00283813 C24.74967845 0.05656168 45.59005933 2.792692 67.375 7.1875 C68.644646 7.43089111 68.644646 7.43089111 69.93994141 7.67919922 C86.7269738 10.90678883 105.64284561 17.29745527 116.75 31 C128.25582526 48.11038197 131.08770541 70.20909315 132.9375 90.25 C133.03413437 91.28318863 133.03413437 91.28318863 133.13272095 92.33724976 C133.56306209 96.95264686 133.97436295 101.56943124 134.375 106.1875 C134.45137695 107.05826172 134.52775391 107.92902344 134.60644531 108.82617188 C135.97320272 125.21264307 135.46694354 141.75931066 135.375 158.1875 C122.88506129 156.48038959 114.31785303 154.09437085 105.83984375 144.62890625 C97.73397795 136.60011683 86.64646701 134.03353927 75.625 133.9375 C72.87254168 133.97692446 70.12530685 134.07525681 67.375 134.1875 C66.37339844 134.20941406 65.37179687 134.23132813 64.33984375 134.25390625 C52.72908094 135.28270802 38.95403745 143.34528965 31.375 152.1875 C30.98038951 154.28559488 30.98038951 154.28559488 32.375 156.1875 C35.62788167 159.53010114 37.7556258 161.46600299 42.4831543 161.77099609 C44.05529238 161.77684289 45.62769474 161.7552615 47.19921875 161.7109375 C48.05095169 161.7066423 48.90268463 161.70234711 49.78022766 161.69792175 C52.54187938 161.67745092 55.30141048 161.62081395 58.0625 161.5625 C59.95896389 161.53980361 61.85545002 161.51889708 63.75195312 161.49975586 C69.29400326 161.43420473 74.83415764 161.31860467 80.375 161.1875 C81.15490295 161.16991638 81.93480591 161.15233276 82.73834229 161.13421631 C96.45517191 161.86464212 96.45517191 161.86464212 109.375 159.1875 C114.92699147 159.00082784 120.2507594 159.39761452 125.75 160.125 C126.81541016 160.25551758 126.81541016 160.25551758 127.90234375 160.38867188 C133.1118463 161.05592315 133.1118463 161.05592315 135.375 162.1875 C135.47512648 166.40089937 135.54704874 170.61363814 135.59472656 174.82788086 C135.61463609 176.25638924 135.64177429 177.68481838 135.67675781 179.11303711 C135.9796045 191.81032999 134.29243489 202.54444942 125.375 212.1875 C113.72557495 223.95599924 102.39585335 229.21434739 85.72631836 229.43823242 C76.25009005 229.43568665 66.81548217 228.99958449 57.375 228.1875 C60.3571322 231.65379013 62.29419742 232.73621717 66.8125 233.3125 C68.38064453 233.5290625 68.38064453 233.5290625 69.98046875 233.75 C71.66076172 233.9665625 71.66076172 233.9665625 73.375 234.1875 C75.79244662 234.5574387 78.20914596 234.93230002 80.625 235.3125 C82.54155014 235.60493136 84.45817368 235.8968844 86.375 236.1875 C81.6732275 249.5713815 70.98145718 261.00352168 58.375 267.1875 C49.33055174 270.85069902 40.27295632 274.36960887 30.375 273.1875 C24.07818027 270.30145762 19.81446301 264.35700804 15.375 259.1875 C11.71225832 260.5794709 11.71225832 260.5794709 8.4375 262.6875 C2.78035067 266.80179042 -3.8855197 266.96942865 -10.625 266.1875 C-14.84840061 264.86300159 -18.47749759 263.33500241 -21.625 260.1875 C-22.53556695 251.34199246 -21.51559398 242.61670429 -20.1875 233.875 C-18.39024602 221.72883843 -17.85885304 209.70131481 -17.66400146 197.43292236 C-17.62064349 194.9366836 -17.56566306 192.44082383 -17.51025391 189.94482422 C-17.40660197 185.10542192 -17.33701263 180.26631721 -17.28598022 175.42608643 C-17.26233214 173.50290985 -17.23053189 171.57981305 -17.18984985 169.65692139 C-16.93962994 157.15741757 -18.01663465 146.89001496 -22.625 135.1875 C-22.94686279 134.35919678 -23.26872559 133.53089355 -23.6003418 132.67749023 C-30.29944704 116.54938908 -52.39162165 99.79974974 -68.3125 93.0625 C-70.06851804 92.39701045 -71.83821815 91.76532898 -73.625 91.1875 C-74.24503906 90.98511719 -74.86507812 90.78273438 -75.50390625 90.57421875 C-78.63686368 90.00301657 -81.69489154 90.09555455 -84.875 90.125 C-86.76992187 90.13853516 -86.76992187 90.13853516 -88.703125 90.15234375 C-89.66734375 90.16394531 -90.6315625 90.17554688 -91.625 90.1875 C-91.42476548 92.1618526 -91.42476548 92.1618526 -90.625 94.1875 C-88.91629818 95.16246016 -88.91629818 95.16246016 -86.7578125 95.609375 C-85.95988281 95.82561523 -85.16195312 96.04185547 -84.33984375 96.26464844 C-83.48519531 96.48668945 -82.63054687 96.70873047 -81.75 96.9375 C-73.39489828 99.34905796 -67.18852821 102.34523862 -60.625 108.1875 C-59.66980469 109.03183594 -58.71460938 109.87617188 -57.73046875 110.74609375 C-55.88185435 112.41157901 -54.04665679 114.09218147 -52.23046875 115.79296875 C-49.61795976 118.26291991 -49.61795976 118.26291991 -46.56640625 120.546875 C-43.25167465 123.52264999 -41.43623306 126.36251444 -39.375 130.25 C-38.86839844 131.16749023 -38.86839844 131.16749023 -38.3515625 132.10351562 C-37.42588664 133.78904746 -36.5244645 135.48783622 -35.625 137.1875 C-35.26688232 137.77088135 -34.90876465 138.3542627 -34.53979492 138.95532227 C-32.30945388 144.39754489 -33.18719329 151.21812297 -33.1875 157.0625 C-33.18576782 157.83550446 -33.18403564 158.60850891 -33.18225098 159.40493774 C-33.19334501 170.73063137 -34.00403304 181.70519427 -35.875 192.875 C-36.07939697 194.10138184 -36.28379395 195.32776367 -36.49438477 196.59130859 C-37.92848843 204.3204068 -39.32060993 211.20923261 -45.31640625 216.61328125 C-46.26386719 217.23589844 -47.21132812 217.85851562 -48.1875 218.5 C-54.22038397 222.26945523 -54.22038397 222.26945523 -57.625 228.1875 C-58.24224586 234.3599586 -56.70264854 238.92503612 -53.625 244.1875 C-51.74643733 246.2919206 -51.74643733 246.2919206 -49.625 247.1875 C-48.635 247.1875 -47.645 247.1875 -46.625 247.1875 C-46.55023438 246.57003906 -46.47546875 245.95257813 -46.3984375 245.31640625 C-45.32225442 238.38452111 -42.87712666 233.72328753 -38.625 228.1875 C-37.635 228.5175 -36.645 228.8475 -35.625 229.1875 C-35.66427612 230.09459717 -35.66427612 230.09459717 -35.7043457 231.02001953 C-35.80885816 233.78391097 -35.87349273 236.547386 -35.9375 239.3125 C-35.97939453 240.26382813 -36.02128906 241.21515625 -36.06445312 242.1953125 C-36.19932683 248.45568238 -36.19932683 248.45568238 -33.14453125 253.70703125 C-32.31308594 254.52558594 -31.48164063 255.34414063 -30.625 256.1875 C-30 258.75 -30 258.75 -30.625 261.1875 C-33.84856374 265.05577649 -37.43060812 268.72390038 -42.58984375 269.47265625 C-57.01285367 270.05566017 -74.8329911 261.47044574 -85.3125 251.875 C-90.53253001 246.66232215 -95.38238345 240.85802547 -98.625 234.1875 C-98.295 233.1975 -97.965 232.2075 -97.625 231.1875 C-95.98917969 231.14882813 -95.98917969 231.14882813 -94.3203125 231.109375 C-83.02877175 230.72440742 -72.56421261 228.96755994 -61.625 226.1875 C-61.625 225.1975 -61.625 224.2075 -61.625 223.1875 C-62.19081787 223.24808594 -62.75663574 223.30867187 -63.33959961 223.37109375 C-74.85023338 224.56999802 -86.36442501 225.45044326 -97.9375 225.6875 C-98.95513428 225.73003906 -99.97276855 225.77257812 -101.02124023 225.81640625 C-110.33875662 225.90227491 -116.52311335 222.14197333 -123.3125 216 C-131.22626906 207.4931616 -136.12249665 196.77254085 -140.625 186.1875 C-140.98078125 185.37812988 -141.3365625 184.56875977 -141.703125 183.73486328 C-143.06913265 178.4784832 -142.88953985 173.3576889 -142.85546875 167.94921875 C-142.85501053 166.75504837 -142.85455231 165.56087799 -142.8540802 164.33052063 C-142.85106204 161.8013103 -142.8431888 159.27210176 -142.83081055 156.74291992 C-142.81274546 152.92685122 -142.81029983 149.11102858 -142.81054688 145.29492188 C-142.78572078 127.29813658 -142.17771297 109.67539161 -139.8125 91.8125 C-139.72507538 91.14661865 -139.63765076 90.4807373 -139.5475769 89.79467773 C-132.59643112 37.19717794 -132.59643112 37.19717794 -114.625 23.1875 C-96.60128279 11.14172391 -75.6487552 6.52228298 -54.43383789 3.80444336 C-52.05914703 3.49956953 -49.68685368 3.17958767 -47.31445312 2.85742188 C-31.54763234 0.75195727 -15.89561852 -0.02312104 0 0 Z " fill="#FDFDFD" transform="translate(259.625,55.8125)"/>
<path d="M0 0 C0.66 0 1.32 0 2 0 C-0.0941273 25.95088707 -10.68692796 49.90038639 -24 72 C-24.58023926 72.96631348 -25.16047852 73.93262695 -25.75830078 74.92822266 C-34.58578054 89.56665443 -43.7486926 103.97828641 -53.17529297 118.23730469 C-55.00005809 121.00008795 -56.81485231 123.76923777 -58.62890625 126.5390625 C-89.71972277 173.82628173 -89.71972277 173.82628173 -114 181 C-114.99 181 -115.98 181 -117 181 C-117.49416401 173.87580214 -116.82867304 167.65842263 -115 160.8125 C-112.07254702 149.53525393 -111.42757641 138.39198916 -115.3046875 127.25 C-116.9957568 121.77777575 -117.10898352 117.19486322 -114.5 112.03125 C-112.75784733 109.27284161 -110.93241517 106.62755999 -109 104 C-108.01 102.515 -108.01 102.515 -107 101 C-107.804375 101.020625 -108.60875 101.04125 -109.4375 101.0625 C-112 101 -112 101 -113 100 C-115.11480575 99.87743006 -117.23343538 99.82011507 -119.3515625 99.7890625 C-120.69271882 99.76091214 -122.03386443 99.73224758 -123.375 99.703125 C-125.47622401 99.6624936 -127.57726539 99.62561286 -129.67871094 99.59863281 C-158.45638136 99.19759848 -179.50486926 89.98621763 -199.94042969 70.01269531 C-201.95227571 68.04663811 -203.97926636 66.09723735 -206.0078125 64.1484375 C-220.51275925 50.0861683 -232.61610625 34.8531082 -238 15 C-238 14.01 -238 13.02 -238 12 C-237.34 12 -236.68 12 -236 12 C-235.67837891 12.5983667 -235.35675781 13.1967334 -235.02539062 13.81323242 C-231.38968362 20.56405571 -227.71437237 27.29213281 -224 34 C-223.60119629 34.7223584 -223.20239258 35.4447168 -222.79150391 36.18896484 C-211.53823988 56.33215094 -191.64019645 65.62076028 -170.28515625 72.1328125 C-163.77611825 73.75809956 -157.37789112 74.42118532 -150.6796875 74.69140625 C-148 75 -148 75 -145 77 C-132.83153383 79.38366568 -118.61640926 80.88451828 -106.52734375 77.56640625 C-102.92901365 76.75997987 -99.28713102 76.44358369 -95.625 76.0625 C-88.84585896 75.31659646 -82.48457378 74.18996571 -76 72 C-74.95328125 71.65066406 -73.9065625 71.30132812 -72.828125 70.94140625 C-56.90454944 65.24106523 -44.67648821 56.25651914 -36.5 41.375 C-35.38987984 39.42992741 -34.27789607 37.48591727 -33.1640625 35.54296875 C-32.62942383 34.60114746 -32.09478516 33.65932617 -31.54394531 32.68896484 C-29.40632037 28.96603614 -27.17537758 25.31166147 -24.875 21.6875 C-23.85019531 20.05361328 -23.85019531 20.05361328 -22.8046875 18.38671875 C-21 16 -21 16 -18 15 C-18.50626973 38.38045651 -36.30971053 54.66785464 -51 71 C-50.05125 70.34 -49.1025 69.68 -48.125 69 C-45 67 -45 67 -43 67 C-43.58591884 70.75773177 -44.6471584 73.54990486 -46.51953125 76.8515625 C-47.30299927 78.23927856 -47.30299927 78.23927856 -48.10229492 79.6550293 C-48.94884644 81.12516479 -48.94884644 81.12516479 -49.8125 82.625 C-50.38911377 83.63667236 -50.96572754 84.64834473 -51.55981445 85.69067383 C-56.73057485 94.68860011 -62.21394342 103.4722409 -67.87768555 112.16674805 C-70.39726935 116.28046344 -70.39726935 116.28046344 -71 121 C-66.3739623 115.19204774 -62.04021232 109.27450325 -57.9453125 103.08203125 C-57.12654129 101.85246956 -57.12654129 101.85246956 -56.29122925 100.59806824 C-55.14515838 98.87562647 -54.00073637 97.15208652 -52.85791016 95.42749023 C-51.13928321 92.8340536 -49.41582879 90.24388262 -47.69140625 87.65429688 C-32.54068449 64.87612554 -18.41169876 42.76521668 -8.47265625 17.14453125 C-2.88930288 2.88930288 -2.88930288 2.88930288 0 0 Z " fill="#FAFAFA" transform="translate(383,275)"/>
<path d="M0 0 C2.46920711 0.35800871 3.69640518 0.66134212 5.38671875 2.546875 C8.93138262 8.55044984 11.64032411 14.7641985 14.3125 21.1875 C18.15260902 30.35905353 22.60091685 38.65845306 28 47 C29.23502383 48.92536522 30.46933955 50.85118474 31.703125 52.77734375 C33.77357715 56.00739895 35.84441333 59.23719848 37.91748047 62.46557617 C70.35789412 113.07368235 70.35789412 113.07368235 78 136 C78.99 136 79.98 136 81 136 C80.69078116 134.54096742 80.37751201 133.08279278 80.0625 131.625 C79.80146484 130.40683594 79.80146484 130.40683594 79.53515625 129.1640625 C79.07669307 126.970537 79.07669307 126.970537 78 125 C77.91489795 123.0406396 77.89282344 121.07837206 77.90234375 119.1171875 C77.90717773 117.36728516 77.90717773 117.36728516 77.91210938 115.58203125 C77.92467773 113.74705078 77.92467773 113.74705078 77.9375 111.875 C77.94201172 110.64394531 77.94652344 109.41289062 77.95117188 108.14453125 C77.9629867 105.09630608 77.97945972 102.04817686 78 99 C84.30284406 99.5342617 89.56270417 101.08008379 95.4375 103.375 C97.03982856 103.98838125 98.64269227 104.60036639 100.24609375 105.2109375 C101.02831299 105.51136963 101.81053223 105.81180176 102.61645508 106.12133789 C105.73781713 107.27198646 108.90004498 108.27156409 112.08056641 109.24536133 C116.31171183 110.90886559 118.44629462 113.81348848 120.3125 117.8125 C121.79887093 124.70385615 121.27404424 128.64997848 118.5 135.0625 C112.84925104 149.1008279 116.32204859 165.96614578 121 180 C121.12781786 182.67394964 121.04391871 185.32095857 121 188 C110.71036462 187.61890239 103.29737795 182.08495137 96.34375 174.80078125 C91.92234488 169.51720213 88.18163185 163.7651374 84.36865234 158.03564453 C82.26038856 154.89995003 80.07527963 151.82155433 77.875 148.75 C77.46241943 148.17185547 77.04983887 147.59371094 76.62475586 146.99804688 C74.02896008 143.37882459 71.34508357 139.83980262 68.625 136.3125 C52.79696695 115.26370212 39.69393439 91.35932826 27.19628906 68.20751953 C26.36920614 66.68129835 25.53473004 65.15906891 24.69433594 63.64013672 C-0.70273248 17.71179336 -0.70273248 17.71179336 0 0 Z " fill="#FAFAFA" transform="translate(121,267)"/>
<path d="M0 0 C3.84929641 3.34695113 3.84929641 3.34695113 4.5625 6.4375 C3.70498048 10.34397779 2.20818798 11.6259409 -1 14 C-8.37345148 16.27969262 -16.23263187 16.49790766 -23.8828125 16.9296875 C-26.37502858 17.0867868 -28.86721522 17.24435374 -31.359375 17.40234375 C-35.23568876 17.64057757 -39.11214471 17.87425441 -42.98925781 18.09912109 C-58.25972225 18.99635333 -72.43539232 20.14513077 -87 25 C-86.08695652 18.34782609 -86.08695652 18.34782609 -85.375 15.5 C-84.87825076 12.18833837 -85.42141362 9.27865615 -86 6 C-85.03900391 5.70609375 -85.03900391 5.70609375 -84.05859375 5.40625 C-79.13249787 3.7030395 -75.76680597 2.20672149 -72.5 -1.9375 C-54.68473391 -24.33145598 -19.68090688 -13.24431572 0 0 Z " fill="#030303" transform="translate(218,203)"/>
<path d="M0 0 C2.57436237 2.09850981 4.89014772 4.25250788 7.11328125 6.72265625 C7.62761719 7.26792969 8.14195312 7.81320313 8.671875 8.375 C11.94855196 11.9659865 13.93499645 14.89168857 15.11328125 19.72265625 C14.40365234 19.17738281 14.40365234 19.17738281 13.6796875 18.62109375 C11.50531306 16.96806055 9.31283663 15.34202841 7.11328125 13.72265625 C6.39269531 13.18511719 5.67210937 12.64757812 4.9296875 12.09375 C-5.4904552 4.68263247 -16.37108128 3.49243608 -28.88671875 4.72265625 C-43.04756601 7.2411962 -54.76735712 15.35752712 -65.56201172 24.421875 C-76.61122088 33.67208963 -76.61122088 33.67208963 -81.69921875 33.78515625 C-84.56484848 32.39327895 -85.50409497 31.63344315 -86.88671875 28.72265625 C-87.76721355 24.61906582 -87.8327584 21.23520343 -85.5625 17.60546875 C-83.76407851 15.5281909 -81.86406883 13.62938668 -79.88671875 11.72265625 C-79.38140625 11.13742188 -78.87609375 10.5521875 -78.35546875 9.94921875 C-59.72709415 -11.05522403 -22.50885293 -16.90856416 0 0 Z " fill="#040404" transform="translate(361.88671875,138.27734375)"/>
<path d="M0 0 C6.7496873 4.6810781 14.24675858 10.49351717 18 18 C18.4888792 22.6002731 18.80077277 26.62267084 16.4375 30.6875 C12.87629406 32.60507243 10.8937868 31.96336961 7 31 C4.47714557 29.38627585 2.36492421 27.42236907 0.1875 25.375 C-1.0482377 24.27188361 -2.28652448 23.17161611 -3.52734375 22.07421875 C-4.12401855 21.54231934 -4.72069336 21.01041992 -5.33544922 20.46240234 C-17.51866753 9.75875352 -33.61845686 2.64951967 -49.875 2.625 C-50.72191406 2.60050781 -51.56882813 2.57601562 -52.44140625 2.55078125 C-61.10880084 2.51096167 -67.65205981 5.40704408 -74.25 11 C-75.03890625 11.66 -75.8278125 12.32 -76.640625 13 C-77.41921875 13.66 -78.1978125 14.32 -79 15 C-80.66303487 16.33786045 -82.32871778 17.67245667 -84 19 C-82.80969791 10.50421884 -75.81022925 4.2469753 -69.5390625 -1.140625 C-49.53269231 -15.79144379 -20.35705574 -12.56751378 0 0 Z " fill="#040404" transform="translate(219,140)"/>
<path d="M0 0 C1.03253906 0.01353516 1.03253906 0.01353516 2.0859375 0.02734375 C3.76577838 0.05067487 5.44543746 0.08653674 7.125 0.125 C7.62 2.105 7.62 2.105 8.125 4.125 C3.53934856 6.59419693 -0.82627483 8.48051013 -5.8125 10 C-16.5506365 13.49864096 -23.72952541 20.53960289 -31.875 28.125 C-33.16084814 29.25664585 -34.45197998 30.38233645 -35.75 31.5 C-39.43656037 34.70470705 -43.03438916 38.00123649 -46.625 41.3125 C-47.1804248 41.82409668 -47.73584961 42.33569336 -48.30810547 42.86279297 C-48.84064941 43.35537598 -49.37319336 43.84795898 -49.921875 44.35546875 C-50.68661133 45.06195557 -50.68661133 45.06195557 -51.46679688 45.78271484 C-52.71525039 46.97272827 -53.90203867 48.22669928 -55.078125 49.48828125 C-56.875 51.125 -56.875 51.125 -59.875 51.125 C-60.666088 45.092954 -60.15548782 41.83104467 -56.625 36.8125 C-45.48370447 22.82744722 -30.76149106 8.74832335 -13.875 2.125 C-12.9571875 1.75890625 -12.039375 1.3928125 -11.09375 1.015625 C-7.33888606 -0.02334221 -3.85699833 -0.09717244 0 0 Z " fill="#060606" transform="translate(336.875,144.875)"/>
<path d="M0 0 C4.94099665 0.3862961 7.37826446 2.86507339 10.625 6.3125 C11.10195313 6.79912109 11.57890625 7.28574219 12.0703125 7.78710938 C19 14.93816189 19 14.93816189 19 19 C15.16668301 19.02929981 11.33339529 19.04689897 7.5 19.0625 C6.42234375 19.07087891 5.3446875 19.07925781 4.234375 19.08789062 C-1.61328382 19.10571885 -7.21863671 18.89105963 -13 18 C-11.4805627 13.1396313 -8.67081346 9.93920644 -5.375 6.1875 C-4.859375 5.59001953 -4.34375 4.99253906 -3.8125 4.37695312 C-2.54753728 2.91287591 -1.27456166 1.45572845 0 0 Z " fill="#F4F4F4" transform="translate(251,331)"/>
<path d="M0 0 C5.69593996 0.3417564 9.2070933 1.76987062 13 6 C16.8692454 10.92340514 17.52440837 14.81198126 17 21 C16.67 21.66 16.34 22.32 16 23 C15.34 23 14.68 23 14 23 C13.75765625 22.25234375 13.5153125 21.5046875 13.265625 20.734375 C12.93046875 19.74953125 12.5953125 18.7646875 12.25 17.75 C11.76273437 16.28820312 11.76273437 16.28820312 11.265625 14.796875 C9.31803149 10.49293378 7.0197695 8.49988701 2.8125 6.4375 C0 5 0 5 -1 2 C-0.67 1.34 -0.34 0.68 0 0 Z " fill="#0E0E0E" transform="translate(283,274)"/>
<path d="M0 0 C17.61143502 -0.74319355 33.62874158 10.17641096 46.19921875 21.42578125 C47.82661031 22.92152886 49.43704379 24.43704379 51 26 C50.505 27.485 50.505 27.485 50 29 C48.65808594 27.82244141 48.65808594 27.82244141 47.2890625 26.62109375 C32.52963844 13.75322043 20.05621065 4.98781969 0 3 C0 2.01 0 1.02 0 0 Z " fill="#DFDFDF" transform="translate(172,142)"/>
<path d="M0 0 C-1.75461912 2.22565781 -2.60383847 2.94592081 -5.4609375 3.3359375 C-6.42257812 3.34882813 -7.38421875 3.36171875 -8.375 3.375 C-21.61503288 4.25024256 -34.5670898 11.15980705 -43.7109375 20.8046875 C-45 22 -45 22 -48 22 C-44.68662125 13.04983667 -30.37490896 7.29755593 -22.1484375 3.375 C-14.72764523 0.13415772 -8.04359749 -0.26614845 0 0 Z " fill="#DEDEDE" transform="translate(344,142)"/>
<path d="M0 0 C-1.83546497 2.37530761 -2.76478383 2.95963942 -5.77734375 3.4765625 C-6.82019531 3.52554688 -7.86304688 3.57453125 -8.9375 3.625 C-12.4303051 3.80678168 -15.63681947 4.01130596 -19 5 C-19 4.01 -19 3.02 -19 2 C-12.53991163 0.04978464 -6.7281627 -0.22262303 0 0 Z " fill="#D6D6D6" transform="translate(344,142)"/>
</svg>
